<?xml version="1.0" encoding="iso-8859-1"?>
<!-- Uploaded to: SVG Repo, www.svgrepo.com, Generator: SVG Repo Mixer Tools -->
<!DOCTYPE svg PUBLIC "-//W3C//DTD SVG 1.1//EN" "http://www.w3.org/Graphics/SVG/1.1/DTD/svg11.dtd">
<svg height="800px" width="800px" version="1.1" id="Capa_1" xmlns="http://www.w3.org/2000/svg" xmlns:xlink="http://www.w3.org/1999/xlink" 
	 viewBox="0 0 63.164 63.164" xml:space="preserve">
<g>
	<path style="fill:#1D1D1B;" d="M62.877,14.741c-0.987-5.553-4.944-10.319-10.792-10.86c-2.373-0.22-4.868,0.264-6.816,1.704
		c-2.895,2.141-3.817,7.353-7.329,8.709c-2.948-0.893-7.522-8.05-9.108-9.352c-2.036-1.671-4.417-2.968-6.953-3.701
		C16.239-0.387,9.819,0.784,5.39,4.731C1.003,8.64-1.073,15.078,0.55,20.786c0.722,2.538,2.151,4.816,3.927,6.75
		c1.06,1.154,2.261,2.112,3.485,3.079c1.068,0.764,2.122,1.547,3.163,2.349c2.273,1.605,2.259,3.967-0.044,7.085
		c-0.502,0.036-0.851,0.299-1.046,0.645c-3.865,1.237-7.092,3.682-8.254,8.099c-1.272,4.834,1.194,9.061,5.381,11.396
		c4.214,2.35,9.974,3.845,14.025,0.478c2.056-1.709,3.133-4.14,4.554-6.34c2.019-3.126,5.178-5.01,8.71-2.594
		c1.274,0.871,2.053,2.784,3.072,3.971c6.511,7.584,19.719,2.931,17.88-7.712c-0.423-2.447-2.137-4.157-2.975-6.393
		c-0.385-1.029-0.641-5.31,0.006-6.342c0.522-0.833,2.132-1.407,3.011-2.024c1.313-0.921,2.498-1.752,3.561-3.003
		C62.485,26.139,63.804,19.957,62.877,14.741z M60.598,20.208c-1.867-0.269-3.813-0.246-5.689-0.333
		c-0.393-0.018-0.382,0.571,0,0.605c1.841,0.161,3.739,0.446,5.595,0.43c-0.145,0.932-0.348,1.848-0.621,2.719
		c-0.431,1.377-1.01,2.505-1.703,3.487c-0.032-0.073-0.089-0.135-0.194-0.155c-2.001-0.394-4.184-0.128-6.183,0.164
		c-0.341,0.05-0.265,0.645,0.082,0.608c1.992-0.214,3.958-0.062,5.946-0.149c-0.564,0.723-1.193,1.369-1.879,1.977
		c-3.391-0.531-6.973-0.459-10.383-0.63c-0.433-0.022-0.424,0.633,0,0.668c3.093,0.255,6.304,0.738,9.438,0.758
		c-0.93,0.743-1.938,1.461-3.002,2.245c-0.133,0.098-0.264,0.197-0.396,0.297c-2.089-0.182-4.296-0.024-6.371,0.055
		c-0.362,0.014-0.362,0.549,0,0.563c1.777,0.067,3.655,0.198,5.471,0.122c-0.713,0.644-1.321,1.378-1.676,2.323
		c-0.009,0.023-0.012,0.046-0.02,0.069c-2.577-0.261-5.205-0.299-7.772-0.453c-0.364-0.022-0.357,0.532,0,0.563
		c2.491,0.21,5.027,0.546,7.544,0.665c-0.19,0.865-0.168,1.696-0.007,2.504c-2.262-0.346-4.696-0.208-6.871-0.04
		c-0.415,0.032-0.424,0.676,0,0.654c2.419-0.128,4.759,0.187,7.13,0.358c0.415,1.251,1.105,2.459,1.796,3.674
		c-1.966-0.178-3.963-0.173-5.927-0.246c-0.237-0.009-0.232,0.349,0,0.366c2.063,0.151,4.155,0.398,6.229,0.414
		c0.528,0.939,1.03,1.886,1.378,2.863c-3.219-0.667-6.756-0.66-9.942-0.711c-0.368-0.006-0.365,0.554,0,0.569
		c3.423,0.148,6.819,0.822,10.219,1.078c0.162,0.683,0.242,1.382,0.179,2.108c-0.025,0.292-0.067,0.579-0.124,0.859
		c-2.649-0.08-5.284,0.01-7.944-0.257c-0.34-0.034-0.331,0.486,0,0.527c2.503,0.31,5.198,0.608,7.762,0.423
		c-1.163,3.814-5.222,6.229-9.295,4.905c-3.418-1.111-4.473-4.113-6.63-6.554c-2.488-2.815-5.752-3.921-9.172-1.912
		c-5.858,3.441-5.766,13.234-14.689,11.048c-4.192-1.027-8.272-3.407-8.35-8.112c-0.066-3.996,2.946-6.873,6.35-8.737
		c0.066,0.007,0.131,0.016,0.203,0.014c5.224-0.155,6.577-5.473,3.859-9.419c-2.178-3.162-6.01-4.726-8.562-7.546
		c-3.745-4.138-4.741-9.663-2.296-14.727c5.423-11.232,20.706-9.547,27.18-0.404c0.914,1.291,2.594,4.034,4.429,5.331
		c-0.005,0.551,0.347,1.072,1.095,1.047c6.483-0.219,6.008-7.064,10.861-9.63c3.009-1.591,6.551-0.705,9.083,1.342
		c-1.887-0.431-3.958-0.463-5.825-0.365c-0.432,0.023-0.437,0.666,0,0.675c2.31,0.046,4.543,0.437,6.832,0.621
		c0.526,0.558,0.987,1.167,1.353,1.818c0.081,0.145,0.147,0.297,0.222,0.445c-1.97-0.316-4.103-0.212-6.069-0.277
		c-0.434-0.014-0.424,0.636,0,0.668c2.08,0.157,4.329,0.528,6.419,0.351C60.66,14.905,60.901,17.61,60.598,20.208z"/>
	<path style="fill:#1D1D1B;" d="M50.902,54.361c-1.573,0.021-3.077,0.081-4.641-0.177c-0.211-0.035-0.305,0.283-0.09,0.326
		c1.558,0.308,3.204,0.488,4.777,0.196C51.146,54.67,51.097,54.359,50.902,54.361z"/>
	<path style="fill:#1D1D1B;" d="M59.646,23.316c-3.301-1.03-7.321-0.912-10.741-0.809c-0.394,0.012-0.394,0.598,0,0.612
		c3.536,0.125,7.146,0.829,10.66,0.798C59.914,23.914,59.975,23.419,59.646,23.316z"/>
	<path style="fill:#1D1D1B;" d="M60.24,15.539c-2.942-0.385-6.032-0.242-8.999-0.289c-0.315-0.005-0.309,0.465,0,0.485
		c2.961,0.192,6.034,0.585,8.999,0.437C60.658,16.151,60.635,15.591,60.24,15.539z"/>
</g>
</svg>